<svg width="130" height="31" viewBox="0 0 130 31" fill="none" xmlns="http://www.w3.org/2000/svg">
<path d="M1.4 23V8.6H3.84L8.6 18.16L13.36 8.6H15.8V23H13.26V14.4L9.08 23H8.12L3.94 14.4V23H1.4ZM47.0305 23V8.6H49.7505V20.46H55.9505V23H47.0305ZM59.5986 23V11.14H55.0586V8.6H66.8586V11.14H62.3186V23H59.5986ZM69.2656 23V8.6H71.9856V23H69.2656ZM81.7636 23.3C80.3236 23.3 79.0803 22.9867 78.0336 22.36C76.9936 21.7333 76.1903 20.8567 75.6236 19.73C75.0636 18.6033 74.7836 17.2933 74.7836 15.8C74.7836 14.3067 75.0636 12.9967 75.6236 11.87C76.1903 10.7433 76.9936 9.86667 78.0336 9.24C79.0803 8.61333 80.3236 8.3 81.7636 8.3C83.4169 8.3 84.8036 8.71 85.9236 9.53C87.0503 10.35 87.8436 11.46 88.3036 12.86L85.5636 13.62C85.2969 12.7467 84.8469 12.07 84.2136 11.59C83.5803 11.1033 82.7636 10.86 81.7636 10.86C80.8503 10.86 80.0869 11.0633 79.4736 11.47C78.8669 11.8767 78.4103 12.45 78.1036 13.19C77.7969 13.93 77.6436 14.8 77.6436 15.8C77.6436 16.8 77.7969 17.67 78.1036 18.41C78.4103 19.15 78.8669 19.7233 79.4736 20.13C80.0869 20.5367 80.8503 20.74 81.7636 20.74C82.7636 20.74 83.5803 20.4967 84.2136 20.01C84.8469 19.5233 85.2969 18.8467 85.5636 17.98L88.3036 18.74C87.8436 20.14 87.0503 21.25 85.9236 22.07C84.8036 22.89 83.4169 23.3 81.7636 23.3ZM89.7148 23L94.1148 8.6H98.1748L102.575 23H99.7748L95.8548 10.3H96.3748L92.5148 23H89.7148ZM92.3548 20V17.46H99.9548V20H92.3548ZM104.967 23V8.6H111.047C111.187 8.6 111.374 8.60667 111.607 8.62C111.847 8.62667 112.061 8.64667 112.247 8.68C113.107 8.81333 113.811 9.09667 114.357 9.53C114.911 9.96333 115.317 10.51 115.577 11.17C115.837 11.8233 115.967 12.5533 115.967 13.36C115.967 14.5667 115.667 15.6 115.067 16.46C114.467 17.3133 113.527 17.84 112.247 18.04L111.047 18.12H107.687V23H104.967ZM113.087 23L110.247 17.14L113.047 16.6L116.167 23H113.087ZM107.687 15.58H110.927C111.067 15.58 111.221 15.5733 111.387 15.56C111.554 15.5467 111.707 15.52 111.847 15.48C112.214 15.38 112.497 15.2133 112.697 14.98C112.897 14.74 113.034 14.4767 113.107 14.19C113.187 13.8967 113.227 13.62 113.227 13.36C113.227 13.1 113.187 12.8267 113.107 12.54C113.034 12.2467 112.897 11.9833 112.697 11.75C112.497 11.51 112.214 11.34 111.847 11.24C111.707 11.2 111.554 11.1733 111.387 11.16C111.221 11.1467 111.067 11.14 110.927 11.14H107.687V15.58ZM122.306 23V11.14H117.766V8.6H129.566V11.14H125.026V23H122.306Z" fill="#403D6D"/>
<path d="M15 2H19.0634C19.995 2 20.8032 2.64312 21.0123 3.55086L24.6437 19.3082C24.9575 20.6698 26.1698 21.6344 27.5671 21.6344H37.3046C38.9614 21.6344 40.3046 20.2913 40.3046 18.6344V9.9597" stroke="#FF8B36" stroke-width="3.5" stroke-linecap="round" stroke-linejoin="round"/>
<circle cx="28" cy="29" r="2" fill="#FF8B36"/>
<circle cx="37" cy="29" r="2" fill="#FF8B36"/>
</svg>
